<?xml version="1.0" encoding="UTF-8"?>
<svg width="200" height="200" viewBox="0 0 200 200" xmlns="http://www.w3.org/2000/svg">
  <!-- 背景圆形 -->
  <defs>
    <linearGradient id="bgGradient" x1="0%" y1="0%" x2="100%" y2="100%">
      <stop offset="0%" stop-color="#ff4a6b" />
      <stop offset="100%" stop-color="#ff9a8b" />
    </linearGradient>
    <filter id="shadow" x="-20%" y="-20%" width="140%" height="140%">
      <feDropShadow dx="0" dy="4" stdDeviation="6" flood-color="rgba(0,0,0,0.3)" />
    </filter>
  </defs>
  
  <!-- 主圆形背景 -->
  <circle cx="100" cy="100" r="90" fill="url(#bgGradient)" filter="url(#shadow)" />
  
  <!-- 购物袋图形 -->
  <path d="M130,75 L130,130 Q130,140 120,140 L80,140 Q70,140 70,130 L70,75 Z" fill="white" opacity="0.9" />
  <path d="M70,75 L70,65 Q70,50 85,50 L115,50 Q130,50 130,65 L130,75" stroke="white" stroke-width="6" fill="none" stroke-linecap="round" />
  
  <!-- TT字母 -->
  <g fill="url(#bgGradient)" transform="translate(80, 85)">
    <!-- 第一个T -->
    <rect x="0" y="0" width="8" height="40" rx="2" />
    <rect x="-5" y="0" width="18" height="8" rx="2" />
    
    <!-- 第二个T -->
    <rect x="22" y="0" width="8" height="40" rx="2" />
    <rect x="17" y="0" width="18" height="8" rx="2" />
  </g>
  
  <!-- 装饰元素 -->
  <circle cx="75" cy="115" r="3" fill="white" opacity="0.7" />
  <circle cx="125" cy="115" r="3" fill="white" opacity="0.7" />
</svg>